<?xml version="1.0" encoding="utf-8"?>
<!-- Generator: Adobe Illustrator 22.1.0, SVG Export Plug-In . SVG Version: 6.00 Build 0)  -->
<svg version="1.1" id="layer" xmlns="http://www.w3.org/2000/svg" xmlns:xlink="http://www.w3.org/1999/xlink" x="0px" y="0px"
	 viewBox="0 0 652 652" style="enable-background:new 0 0 652 652;" xml:space="preserve">
<style type="text/css">
	.st0{fill:#FF3008;}
</style>
<path class="st0" d="M144.4,308c-5.5-10.3-16.2-16.7-27.9-16.7H28.3c-1.7,0-3,1.4-3,3.1c0,0.8,0.3,1.6,0.9,2.1l19.2,19.3
	c1.7,1.7,4,2.7,6.4,2.7H114c4.4,0,8.1,3.5,8.1,7.9s-3.5,8.1-7.9,8.1H71.3c-1.7,0-3,1.4-3,3.1c0,0.8,0.3,1.6,0.9,2.1L88.3,359
	c1.7,1.7,4,2.7,6.4,2.7h19.4C139.4,361.7,158.5,334.7,144.4,308"/>
<path class="st0" d="M186.5,311.1v30.8h7.9c8.4-0.1,15.1-7,15-15.4l0,0c0.2-8.2-6.3-15.1-14.5-15.4c-0.2,0-0.3,0-0.5,0H186.5z
	 M194.4,301.5c14.7,0,25.8,11.1,25.8,25s-11.1,25.1-25.8,25.1H177c-0.7,0-1.2-0.6-1.2-1.2v-47.6c0-0.7,0.6-1.2,1.2-1.2L194.4,301.5z
	"/>
<path class="st0" d="M257.9,343c9.1,0,16.5-7.3,16.5-16.4s-7.3-16.5-16.4-16.5s-16.5,7.3-16.5,16.4l0,0
	C241.5,335.6,248.9,342.9,257.9,343 M257.9,300.4c15.4,0,27.2,11.9,27.2,26.1c0,14.3-11.8,26.1-27.2,26.1s-27.1-11.8-27.1-26.1
	C230.8,312.2,242.6,300.4,257.9,300.4"/>
<path class="st0" d="M322.7,343c9.1,0,16.4-7.4,16.4-16.5s-7.4-16.4-16.5-16.4s-16.4,7.4-16.4,16.4C306.2,335.6,313.6,343,322.7,343
	L322.7,343 M322.7,300.4c15.4,0,27.2,11.8,27.2,26.1c0,14.3-11.9,26.1-27.2,26.1c-15.3,0-27.2-11.8-27.2-26.1
	C295.5,312.2,307.3,300.4,322.7,300.4"/>
<path class="st0" d="M385.9,311.1h-11.1v13.2h11.1c3.6,0.2,6.6-2.6,6.8-6.2c0-0.1,0-0.2,0-0.2c0.1-3.6-2.7-6.7-6.3-6.8
	C386.2,311.1,386,311.1,385.9,311.1 M364.1,302.8c0-0.7,0.6-1.2,1.2-1.2h20.9c10,0,17.2,7.3,17.2,16.5c0.1,6.2-3.4,11.9-8.9,14.7
	l9.6,17c0.4,0.6,0.2,1.3-0.3,1.7c-0.2,0.2-0.5,0.2-0.8,0.2h-8.5c-0.5,0-0.9-0.3-1.1-0.7l-9.3-16.9h-9.3v16.2c0,0.7-0.6,1.2-1.2,1.2
	h-8.1c-0.7,0-1.2-0.6-1.2-1.2L364.1,302.8z"/>
<path class="st0" d="M431.4,311.4v30.8h7.9c8.4-0.1,15.1-7,15-15.4l0,0c0.2-8.2-6.2-15.1-14.5-15.4c-0.2,0-0.4,0-0.5,0H431.4z
	 M439.2,301.7c14.7,0,25.8,11.1,25.8,25.1s-11.1,25.1-25.8,25.1h-17.3c-0.7,0-1.2-0.6-1.2-1.2V303c0-0.7,0.6-1.2,1.2-1.2
	L439.2,301.7z"/>
<path class="st0" d="M497.7,314l-6.1,16.5h12.2L497.7,314z M488.1,339.7l-4,11c-0.2,0.5-0.7,0.9-1.2,0.9h-8.6
	c-0.7,0.1-1.3-0.4-1.4-1.1c0-0.2,0-0.4,0.1-0.6l18.7-47.5c0.2-0.5,0.7-0.9,1.2-0.8h9.7c0.6,0,1.1,0.3,1.2,0.8l18.7,47.5
	c0.3,0.6,0,1.4-0.6,1.7c-0.2,0.1-0.4,0.1-0.6,0.1h-8.6c-0.6,0-1.1-0.3-1.2-0.9l-4-11h-19.4V339.7z"/>
<path class="st0" d="M532.5,315c0-7.9,6.8-14.7,17.5-14.7c5.8-0.1,11.3,2,15.6,5.9c0.5,0.5,0.5,1.3,0.1,1.8c0,0,0,0-0.1,0.1
	l-4.8,4.8c-0.5,0.5-1.3,0.5-1.8,0l0,0c-2.3-2.1-5.2-3.2-8.3-3.3c-4.3,0-7.5,2.5-7.5,5.4c0,9.3,25.4,3.9,25.4,21.8
	c0,9.1-6.9,15.9-19,15.9c-6.8,0.1-13.3-2.5-18.1-7.3c-0.5-0.5-0.5-1.3-0.1-1.8c0,0,0,0,0.1-0.1l4.6-4.6c0.5-0.5,1.3-0.5,1.8,0l0,0
	c2.9,2.8,6.9,4.4,10.9,4.5c5.4,0,8.9-2.9,8.9-6.5C557.8,327.6,532.5,333,532.5,315"/>
<path class="st0" d="M614.7,302.7v18.8h-21.5v-18.8c0-0.7-0.6-1.2-1.2-1.2h-8.1c-0.7,0-1.2,0.6-1.2,1.2v47.5c0,0.7,0.6,1.2,1.2,1.2
	h8.1c0.7,0,1.2-0.6,1.2-1.2v-19.1h21.5v19.1c0,0.7,0.6,1.2,1.2,1.2h8.1c0.7,0,1.2-0.6,1.2-1.2v-47.5c0-0.7-0.6-1.2-1.2-1.2h-8.1
	C615.2,301.5,614.7,302,614.7,302.7z"/>
</svg>
